<svg width="40" height="32" viewBox="0 0 40 32" fill="none" xmlns="http://www.w3.org/2000/svg">
<path d="M2 0C0.89375 0 0 0.89375 0 2C0 3.10625 0.89375 4 2 4H3C3.55 4 4 4.45 4 5V23C4 25.7625 6.2375 28 9 28H10.1687C10.0562 28.3125 10 28.65 10 29C10 30.6562 11.3438 32 13 32C14.6562 32 16 30.6562 16 29C16 28.65 15.9375 28.3125 15.8313 28H28.1688C28.0563 28.3125 28 28.65 28 29C28 30.6562 29.3438 32 31 32C32.6562 32 34 30.6562 34 29C34 28.65 33.9375 28.3125 33.8312 28H38C39.1063 28 40 27.1063 40 26C40 24.8937 39.1063 24 38 24H9C8.45 24 8 23.55 8 23V5C8 2.2375 5.7625 0 3 0H2ZM12 5V17C12 18.6562 13.3438 20 15 20H35C36.6562 20 38 18.6562 38 17V5C38 3.34375 36.6562 2 35 2H29V11C29 11.3687 28.8 11.7063 28.4688 11.8813C28.1375 12.0563 27.75 12.0375 27.4438 11.8313L25 10.2L22.5562 11.8313C22.25 12.0375 21.8563 12.0563 21.5312 11.8813C21.2062 11.7063 21 11.3687 21 11V2H15C13.3438 2 12 3.34375 12 5Z" fill="#F9F7F2"/>
</svg>
