<svg width="40" height="39" viewBox="0 0 40 39" fill="none" xmlns="http://www.w3.org/2000/svg">
<ellipse cx="20" cy="19.1268" rx="20" ry="19.1268" fill="black"/>
<path d="M12.1354 27.8826C12.1354 29.2517 13.3066 30.3718 14.7382 30.3718H25.1493C26.5808 30.3718 27.752 29.2517 27.752 27.8826V15.4369C27.752 14.0679 26.5808 12.9478 25.1493 12.9478H14.7382C13.3066 12.9478 12.1354 14.0679 12.1354 15.4369V27.8826ZM27.752 9.21405H24.4986L23.5746 8.33041C23.3403 8.10639 23.002 7.96948 22.6636 7.96948H17.2238C16.8854 7.96948 16.5471 8.10639 16.3128 8.33041L15.3888 9.21405H12.1354C11.4196 9.21405 10.834 9.77411 10.834 10.4586C10.834 11.1431 11.4196 11.7032 12.1354 11.7032H27.752C28.4678 11.7032 29.0534 11.1431 29.0534 10.4586C29.0534 9.77411 28.4678 9.21405 27.752 9.21405Z" fill="#F9F7F2"/>
</svg>
