<svg width="26" height="19" viewBox="0 0 26 19" fill="none" xmlns="http://www.w3.org/2000/svg">
<path d="M22.1 0H3.9C2.86566 0 1.87368 0.410892 1.14228 1.14228C0.410892 1.87368 0 2.86566 0 3.9V14.3C0 15.3343 0.410892 16.3263 1.14228 17.0577C1.87368 17.7891 2.86566 18.2 3.9 18.2H22.1C23.1343 18.2 24.1263 17.7891 24.8577 17.0577C25.5891 16.3263 26 15.3343 26 14.3V3.9C26 2.86566 25.5891 1.87368 24.8577 1.14228C24.1263 0.410892 23.1343 0 22.1 0ZM11.7 13H6.5C6.15522 13 5.82456 12.863 5.58076 12.6192C5.33696 12.3754 5.2 12.0448 5.2 11.7C5.2 11.3552 5.33696 11.0246 5.58076 10.7808C5.82456 10.537 6.15522 10.4 6.5 10.4H11.7C12.0448 10.4 12.3754 10.537 12.6192 10.7808C12.863 11.0246 13 11.3552 13 11.7C13 12.0448 12.863 12.3754 12.6192 12.6192C12.3754 12.863 12.0448 13 11.7 13ZM19.5 13H16.9C16.5552 13 16.2246 12.863 15.9808 12.6192C15.737 12.3754 15.6 12.0448 15.6 11.7C15.6 11.3552 15.737 11.0246 15.9808 10.7808C16.2246 10.537 16.5552 10.4 16.9 10.4H19.5C19.8448 10.4 20.1754 10.537 20.4192 10.7808C20.663 11.0246 20.8 11.3552 20.8 11.7C20.8 12.0448 20.663 12.3754 20.4192 12.6192C20.1754 12.863 19.8448 13 19.5 13ZM23.4 5.2H2.6V3.9C2.6 3.55522 2.73696 3.22456 2.98076 2.98076C3.22456 2.73696 3.55522 2.6 3.9 2.6H22.1C22.4448 2.6 22.7754 2.73696 23.0192 2.98076C23.263 3.22456 23.4 3.55522 23.4 3.9V5.2Z" fill="#F9F7F2"/>
</svg>
