<svg width="26" height="19" viewBox="0 0 26 19" fill="none" xmlns="http://www.w3.org/2000/svg">
<path d="M22.1 0.362793H3.9C2.86566 0.362793 1.87368 0.773685 1.14228 1.50508C0.410892 2.23647 0 3.22845 0 4.26279V14.6628C0 15.6971 0.410892 16.6891 1.14228 17.4205C1.87368 18.1519 2.86566 18.5628 3.9 18.5628H22.1C23.1343 18.5628 24.1263 18.1519 24.8577 17.4205C25.5891 16.6891 26 15.6971 26 14.6628V4.26279C26 3.22845 25.5891 2.23647 24.8577 1.50508C24.1263 0.773685 23.1343 0.362793 22.1 0.362793ZM11.7 13.3628H6.5C6.15522 13.3628 5.82456 13.2258 5.58076 12.982C5.33696 12.7382 5.2 12.4076 5.2 12.0628C5.2 11.718 5.33696 11.3874 5.58076 11.1436C5.82456 10.8998 6.15522 10.7628 6.5 10.7628H11.7C12.0448 10.7628 12.3754 10.8998 12.6192 11.1436C12.863 11.3874 13 11.718 13 12.0628C13 12.4076 12.863 12.7382 12.6192 12.982C12.3754 13.2258 12.0448 13.3628 11.7 13.3628ZM19.5 13.3628H16.9C16.5552 13.3628 16.2246 13.2258 15.9808 12.982C15.737 12.7382 15.6 12.4076 15.6 12.0628C15.6 11.718 15.737 11.3874 15.9808 11.1436C16.2246 10.8998 16.5552 10.7628 16.9 10.7628H19.5C19.8448 10.7628 20.1754 10.8998 20.4192 11.1436C20.663 11.3874 20.8 11.718 20.8 12.0628C20.8 12.4076 20.663 12.7382 20.4192 12.982C20.1754 13.2258 19.8448 13.3628 19.5 13.3628ZM23.4 5.56279H2.6V4.26279C2.6 3.91801 2.73696 3.58735 2.98076 3.34355C3.22456 3.09976 3.55522 2.96279 3.9 2.96279H22.1C22.4448 2.96279 22.7754 3.09976 23.0192 3.34355C23.263 3.58735 23.4 3.91801 23.4 4.26279V5.56279Z" fill="black"/>
</svg>
