<svg width="22" height="19" viewBox="0 0 22 19" fill="none" xmlns="http://www.w3.org/2000/svg">
<path d="M2.03137 11.021L9.74288 18.2204C10.0629 18.5191 10.4854 18.6856 10.925 18.6856C11.3646 18.6856 11.7871 18.5191 12.1071 18.2204L19.8186 11.021C21.116 9.81326 21.85 8.11903 21.85 6.34798V6.10046C21.85 3.11743 19.6949 0.573951 16.7545 0.0831795C14.8085 -0.241156 12.8283 0.394713 11.4371 1.78594L10.925 2.29805L10.4129 1.78594C9.02166 0.394713 7.0415 -0.241156 5.09549 0.0831795C2.15513 0.573951 0 3.11743 0 6.10046V6.34798C0 8.11903 0.734023 9.81326 2.03137 11.021Z" fill="#F9F7F2"/>
</svg>
