<svg width="19" height="17" viewBox="0 0 19 17" fill="none" xmlns="http://www.w3.org/2000/svg">
<path d="M1.76641 9.58346L8.47207 15.8438C8.75039 16.1036 9.11777 16.2483 9.5 16.2483C9.88223 16.2483 10.2496 16.1036 10.5279 15.8438L17.2336 9.58346C18.3617 8.53327 19 7.06002 19 5.51999V5.30475C19 2.71081 17.126 0.499088 14.5691 0.07233C12.877 -0.209701 11.1551 0.343229 9.94531 1.55299L9.5 1.99831L9.05469 1.55299C7.84492 0.343229 6.12305 -0.209701 4.43086 0.07233C1.87402 0.499088 0 2.71081 0 5.30475V5.51999C0 7.06002 0.638281 8.53327 1.76641 9.58346Z" fill="black"/>
</svg>
