<svg width="20" height="20" viewBox="0 0 20 20" fill="none" xmlns="http://www.w3.org/2000/svg">
<path d="M9.53125 3.28116L9.96484 3.74991L10.4336 3.28194C11.7422 2.00655 13.5547 1.42608 15.3359 1.72257C18.0273 2.17101 20 4.49991 20 7.23038V7.45694C20 9.07804 19.3281 10.6288 18.1406 11.7343L11.082 18.3241C10.7891 18.5976 10.4023 18.7499 10 18.7499C9.59766 18.7499 9.21094 18.5976 8.91797 18.3241L1.85898 11.7343C0.673047 10.6288 0 9.07804 0 7.45694V7.23038C0 4.49991 1.97344 2.17101 4.66406 1.72257C6.41016 1.42608 8.25781 2.00655 9.53125 3.28116C9.49609 3.28116 9.53125 3.28155 9.53125 3.28116ZM9.96484 6.40226L8.20703 4.57413C7.35938 3.76085 6.15625 3.37491 4.97266 3.57179C3.18555 3.86984 1.875 5.41788 1.875 7.23038V7.45694C1.875 8.55851 2.33242 9.61319 3.13828 10.3632L10 16.7694L16.8633 10.3632C17.668 9.61319 18.125 8.55851 18.125 7.45694V7.23038C18.125 5.41788 16.8125 3.86984 15.0273 3.57179C13.8438 3.37491 12.6406 3.76085 11.793 4.57413L9.96484 6.40226Z" fill="black"/>
</svg>
