<svg width="23" height="23" viewBox="0 0 23 23" fill="none" xmlns="http://www.w3.org/2000/svg">
<path d="M10.9609 3.77344L11.4596 4.3125L11.9986 3.77433C13.5035 2.30763 15.5879 1.6401 17.6363 1.98105C20.7314 2.49676 23 5.175 23 8.31504V8.57558C23 10.4398 22.2273 12.2232 20.8617 13.4945L12.7443 21.0728C12.4074 21.3873 11.9627 21.5625 11.5 21.5625C11.0373 21.5625 10.5926 21.3873 10.2557 21.0728L2.13783 13.4945C0.774004 12.2232 0 10.4398 0 8.57558V8.31504C0 5.175 2.26945 2.49676 5.36367 1.98105C7.37168 1.6401 9.49648 2.30763 10.9609 3.77344C10.9205 3.77344 10.9609 3.77388 10.9609 3.77344ZM11.4596 7.36269L9.43809 5.26035C8.46328 4.32508 7.07969 3.88125 5.71855 4.10765C3.66338 4.45041 2.15625 6.23066 2.15625 8.31504V8.57558C2.15625 9.84238 2.68229 11.0553 3.60902 11.9178L11.5 19.285L19.3928 11.9178C20.3182 11.0553 20.8438 9.84238 20.8438 8.57558V8.31504C20.8438 6.23066 19.3344 4.45041 17.2814 4.10765C15.9203 3.88125 14.5367 4.32508 13.5619 5.26035L11.4596 7.36269Z" fill="#F9F7F2"/>
</svg>
