<svg width="30" height="30" viewBox="0 0 30 30" fill="none" xmlns="http://www.w3.org/2000/svg">
<path d="M8.31892 24.3583C9.33281 23.2702 10.8784 23.3568 11.7686 24.5437L13.0174 26.213C14.019 27.536 15.6387 27.536 16.6402 26.213L17.889 24.5437C18.7793 23.3568 20.3248 23.2702 21.3387 24.3583C23.5396 26.7075 25.3325 25.9286 25.3325 22.6396V8.70484C25.3448 3.72196 24.1826 2.47314 19.5088 2.47314H10.1612C5.48746 2.47314 4.3252 3.72196 4.3252 8.70484V22.6273C4.3252 25.9286 6.13041 26.6952 8.31892 24.3583Z" stroke="black" stroke-width="2" stroke-linecap="round" stroke-linejoin="round"/>
<path d="M10.0088 13.6011H10.0183" stroke="black" stroke-width="1.6486" stroke-linecap="round" stroke-linejoin="round"/>
<path d="M13.4736 13.6011H20.2741" stroke="black" stroke-width="1.23645" stroke-linecap="round" stroke-linejoin="round"/>
<path d="M10.0088 8.65527H10.0183" stroke="black" stroke-width="1.6486" stroke-linecap="round" stroke-linejoin="round"/>
<path d="M13.4736 8.65527H20.2741" stroke="black" stroke-width="1.23645" stroke-linecap="round" stroke-linejoin="round"/>
</svg>
