<svg width="30" height="30" viewBox="0 0 30 30" fill="none" xmlns="http://www.w3.org/2000/svg">
<path d="M8.3199 24.3583C9.33379 23.2702 10.8794 23.3568 11.7696 24.5437L13.0184 26.213C14.0199 27.536 15.6397 27.536 16.6412 26.213L17.89 24.5437C18.7803 23.3568 20.3258 23.2702 21.3397 24.3583C23.5406 26.7075 25.3334 25.9286 25.3334 22.6396V8.70484C25.3458 3.72196 24.1835 2.47314 19.5098 2.47314H10.1622C5.48843 2.47314 4.32617 3.72196 4.32617 8.70484V22.6273C4.32617 25.9286 6.13139 26.6952 8.3199 24.3583Z" stroke="#F9F7F2" stroke-width="2" stroke-linecap="round" stroke-linejoin="round"/>
<path d="M10.0098 13.6011H10.0193" stroke="#F9F7F2" stroke-width="1.6486" stroke-linecap="round" stroke-linejoin="round"/>
<path d="M13.4727 13.6011H20.2731" stroke="#F9F7F2" stroke-width="1.23645" stroke-linecap="round" stroke-linejoin="round"/>
<path d="M10.0098 8.65527H10.0193" stroke="#F9F7F2" stroke-width="1.6486" stroke-linecap="round" stroke-linejoin="round"/>
<path d="M13.4727 8.65527H20.2731" stroke="#F9F7F2" stroke-width="1.23645" stroke-linecap="round" stroke-linejoin="round"/>
</svg>
