<svg width="36" height="36" viewBox="0 0 36 36" fill="none" xmlns="http://www.w3.org/2000/svg">
<path d="M31.6202 12.87V23.13C31.6202 24.81 30.7202 26.37 29.2652 27.225L20.3552 32.37C18.9002 33.21 17.1002 33.21 15.6302 32.37L6.72024 27.225C6.0029 26.8091 5.40764 26.2117 4.99426 25.4929C4.58089 24.7741 4.36395 23.9592 4.36524 23.13V12.87C4.36524 11.19 5.26524 9.63 6.72024 8.775L15.6302 3.63C17.0852 2.79 18.8852 2.79 20.3552 3.63L29.2652 8.775C30.7202 9.63 31.6202 11.175 31.6202 12.87Z" stroke="black" stroke-width="2" stroke-linecap="round" stroke-linejoin="round"/>
<path d="M24 24.99C24 22.29 21.315 20.1 18 20.1C14.685 20.1 12 22.29 12 24.99M18 16.5C18.9269 16.5 19.8159 16.1318 20.4713 15.4763C21.1268 14.8209 21.495 13.9319 21.495 13.005C21.495 12.0781 21.1268 11.1891 20.4713 10.5337C19.8159 9.87823 18.9269 9.51001 18 9.51001C17.0731 9.51001 16.1841 9.87823 15.5287 10.5337C14.8732 11.1891 14.505 12.0781 14.505 13.005C14.505 13.9319 14.8732 14.8209 15.5287 15.4763C16.1841 16.1318 17.0731 16.5 18 16.5V16.5Z" stroke="black" stroke-width="2" stroke-linecap="round" stroke-linejoin="round"/>
</svg>
