<svg width="161" height="161" viewBox="0 0 161 161" fill="none" xmlns="http://www.w3.org/2000/svg">
<rect width="160.5" height="160.5" rx="12.098" fill="#D9D9D9"/>
<path d="M102.431 95.9774H57.2648V50.8116H86.2999V44.3593H57.2648C53.716 44.3593 50.8125 47.2628 50.8125 50.8116V95.9774C50.8125 99.5261 53.716 102.43 57.2648 102.43H102.431C105.979 102.43 108.883 99.5261 108.883 95.9774V66.9422H102.431V95.9774ZM77.299 85.7506L70.9758 78.1369L62.104 89.5251H97.5914L86.1709 74.3301L77.299 85.7506ZM108.883 44.3593V34.6809H102.431V44.3593H92.7522C92.7845 44.3916 92.7522 50.8116 92.7522 50.8116H102.431V60.4577C102.463 60.49 108.883 60.4577 108.883 60.4577V50.8116H118.561V44.3593H108.883Z" fill="black"/>
</svg>
