<svg width="30" height="30" viewBox="0 0 30 30" fill="none" xmlns="http://www.w3.org/2000/svg">
<path d="M26.063 10.609V19.0663C26.063 20.4511 25.3211 21.737 24.1217 22.4418L16.7772 26.6828C15.5779 27.3752 14.0941 27.3752 12.8824 26.6828L5.53791 22.4418C4.94661 22.099 4.45593 21.6066 4.11519 21.014C3.77444 20.4215 3.59562 19.7498 3.59668 19.0663V10.609C3.59668 9.22415 4.33855 7.93825 5.53791 7.23347L12.8824 2.99245C14.0818 2.30004 15.5655 2.30004 16.7772 2.99245L24.1217 7.23347C25.3211 7.93825 26.063 9.21179 26.063 10.609Z" stroke="black" stroke-width="2" stroke-linecap="round" stroke-linejoin="round"/>
<path d="M19.7822 20.5995C19.7822 18.3739 17.569 16.5687 14.8364 16.5687C12.1039 16.5687 9.89062 18.3739 9.89062 20.5995M14.8364 13.6012C15.6005 13.6012 16.3333 13.2977 16.8735 12.7574C17.4138 12.2171 17.7173 11.4844 17.7173 10.7203C17.7173 9.95621 17.4138 9.22344 16.8735 8.68316C16.3333 8.14288 15.6005 7.83936 14.8364 7.83936C14.0723 7.83936 13.3396 8.14288 12.7993 8.68316C12.259 9.22344 11.9555 9.95621 11.9555 10.7203C11.9555 11.4844 12.259 12.2171 12.7993 12.7574C13.3396 13.2977 14.0723 13.6012 14.8364 13.6012V13.6012Z" stroke="black" stroke-width="2" stroke-linecap="round" stroke-linejoin="round"/>
</svg>
