<svg width="30" height="30" viewBox="0 0 30 30" fill="none" xmlns="http://www.w3.org/2000/svg">
<path d="M26.062 10.609V19.0663C26.062 20.4511 25.3201 21.737 24.1208 22.4418L16.7763 26.6828C15.5769 27.3752 14.0932 27.3752 12.8814 26.6828L5.53693 22.4418C4.94563 22.099 4.45496 21.6066 4.11421 21.014C3.77346 20.4215 3.59464 19.7498 3.59571 19.0663V10.609C3.59571 9.22415 4.33758 7.93825 5.53693 7.23347L12.8814 2.99245C14.0808 2.30004 15.5645 2.30004 16.7763 2.99245L24.1208 7.23347C25.3201 7.93825 26.062 9.21179 26.062 10.609Z" stroke="#F9F7F2" stroke-width="2" stroke-linecap="round" stroke-linejoin="round"/>
<path d="M19.7822 20.5993C19.7822 18.3737 17.569 16.5684 14.8364 16.5684C12.1039 16.5684 9.89062 18.3737 9.89062 20.5993M14.8364 13.601C15.6005 13.601 16.3333 13.2974 16.8735 12.7572C17.4138 12.2169 17.7173 11.4841 17.7173 10.72C17.7173 9.95597 17.4138 9.22319 16.8735 8.68292C16.3333 8.14264 15.6005 7.83911 14.8364 7.83911C14.0723 7.83911 13.3396 8.14264 12.7993 8.68292C12.259 9.22319 11.9555 9.95597 11.9555 10.72C11.9555 11.4841 12.259 12.2169 12.7993 12.7572C13.3396 13.2974 14.0723 13.601 14.8364 13.601V13.601Z" stroke="#F9F7F2" stroke-width="2" stroke-linecap="round" stroke-linejoin="round"/>
</svg>
