<svg width="163" height="45" viewBox="0 0 163 45" fill="none" xmlns="http://www.w3.org/2000/svg">
<path d="M0 0.064194H6.55197L18.0543 28.7589V45H11.5751V28.8231L0 0.064194ZM17.0351 15.7917L24.5335 0.064194H31.0854L25.8075 12.2611L20.5295 24.4579H20.0199L17.0351 15.7917Z" fill="white"/>
<path d="M35.2991 45V0.064194H41.6327V45H35.2991Z" fill="white"/>
<path d="M53.8717 44.9358H60.2053V0H53.8717V44.9358ZM63.8453 24.8431H71.7076C78.0655 24.8003 82.0452 22.6605 83.6468 18.4237C84.2777 16.7118 84.5932 14.679 84.5932 12.3252C84.5932 4.49358 80.5892 0.385164 72.5812 0C72.29 0 71.9988 0 71.7076 0H63.8453V5.3923H70.6884C75.5903 5.47789 78.0655 7.78887 78.114 12.3252C78.0169 16.99 75.566 19.3438 70.7612 19.3866H63.8453V24.8431Z" fill="white"/>
<path d="M87.7876 44.9358L97.47 6.99715H98.6348L101.11 16.9472L94.0484 44.9358H87.7876ZM99.4356 37.7461L100.819 32.2896H108.608L100.528 0.064194H106.861L118.363 44.9358H112.03L110.21 37.7461H99.4356Z" fill="white"/>
<path d="M122.868 44.9358V0H129.202V44.9358H122.868Z" fill="white"/>
<path d="M143.234 1.43531V2.67489H162.693V1.43531H143.234ZM143.124 15.5927V16.6583H162.737V15.5927H143.124ZM144.594 4.43641V5.39328H151.899V4.43641H144.594ZM153.457 5.39328V6.61112H159.819V5.39328H153.457ZM145.888 13.4397V14.5053H160.126V13.4397H145.888ZM144.353 9.72095V10.6778H152.25V9.72095H144.353ZM143.519 6.28491V7.26353H152.909V6.28491H143.519ZM148.455 0V3.65351H150.057V0H148.455ZM147.556 3.71875V6.93732H148.982V3.71875H147.556ZM147.578 8.61185V12.2654H148.982V8.61185H147.578ZM155.782 0V3.65351H157.384V0H155.782ZM144.353 18.7895L144.528 19.9638C148.302 19.8116 154.137 19.4854 159.622 19.1809L159.665 18.1371C153.962 18.398 147.972 18.659 144.353 18.7895ZM143.431 11.9609L143.541 13.0483C145.998 12.896 149.486 12.6351 152.865 12.3741V11.4172C149.355 11.6564 145.757 11.8522 143.431 11.9609ZM146.108 6.7851C145.91 7.91594 145.208 8.43787 143.212 8.74233C143.453 8.91631 143.76 9.3295 143.87 9.59047C146.13 9.13378 146.985 8.35089 147.227 6.7851H146.108ZM159.095 5.39328V10.6561C159.095 11.8087 159.183 12.1131 159.446 12.3741C159.709 12.6133 160.126 12.7221 160.521 12.7221C160.718 12.7221 161.179 12.7221 161.399 12.7221C161.706 12.7221 162.079 12.6786 162.276 12.5263C162.517 12.3958 162.715 12.2001 162.803 11.8739C162.912 11.5695 162.978 10.6561 163 9.89493C162.671 9.78619 162.254 9.59047 161.991 9.373C161.969 10.1559 161.947 10.7648 161.903 11.0258C161.881 11.2867 161.815 11.439 161.728 11.4825C161.64 11.5477 161.486 11.5695 161.333 11.5695C161.179 11.5695 160.96 11.5695 160.828 11.5695C160.697 11.5695 160.609 11.5477 160.543 11.4607C160.455 11.3955 160.455 11.1563 160.455 10.7213V5.39328H159.095ZM155.695 17.3107C157.537 18.0718 159.709 19.3984 160.828 20.377L161.969 19.5506C160.828 18.6373 158.634 17.3324 156.813 16.593L155.695 17.3107ZM148.938 6.7851V7.8942C148.938 8.89456 149.201 9.11203 150.298 9.11203C150.517 9.11203 151.57 9.11203 151.79 9.11203C152.536 9.11203 152.865 8.85107 152.952 7.91594C152.645 7.82895 152.25 7.72022 152.053 7.56799C152.009 8.19866 151.921 8.28564 151.614 8.28564C151.395 8.28564 150.605 8.28564 150.43 8.28564C150.078 8.28564 150.035 8.24215 150.035 7.8942V6.7851H148.938ZM149.091 15.9406C148.674 16.8105 147.863 18.0936 147.205 18.8982L148.367 19.3114C149.047 18.5503 149.859 17.4412 150.561 16.3973L149.091 15.9406ZM153.194 8.24215C154.905 8.98155 156.857 10.1994 157.823 11.1563L158.678 10.1124C157.691 9.15553 155.673 7.98118 154.005 7.30702L153.194 8.24215ZM155.98 3.91448V5.91521C155.98 7.76371 155.585 10.3299 152.404 12.2436C152.733 12.4828 153.194 12.896 153.391 13.157C156.835 11.0475 157.274 8.17691 157.274 5.93696V3.91448H155.98Z" fill="white"/>
<path d="M142.729 36.4973L143.168 38.1501C145.208 37.5847 147.841 36.8018 150.342 36.0406L150.122 34.4966C147.424 35.236 144.638 36.0406 142.729 36.4973ZM143.036 29.3643V30.9735H150.122V29.3643H143.036ZM145.91 24.9931V43.0214C145.91 43.3476 145.8 43.4346 145.493 43.4346C145.23 43.4564 144.309 43.4564 143.299 43.4346C143.519 43.8913 143.738 44.5655 143.804 44.9569C145.318 44.9787 146.195 44.9569 146.788 44.6742C147.38 44.4132 147.577 43.9566 147.577 43.0214V24.9931H145.91ZM151.285 28.8858V44.9352H152.93V30.4516H160.301V44.7829H161.991V28.8858H151.285ZM152.272 35.4752V37.0192H160.96V35.4752H152.272ZM152.272 42.1733V43.7391H160.96V42.1733H152.272ZM155.936 25.0148C155.716 26.3632 155.212 28.2986 154.773 29.5165L156.265 29.8209C156.769 28.6466 157.362 26.8416 157.822 25.2541L155.936 25.0148Z" fill="white"/>
</svg>
