<svg width="36" height="36" viewBox="0 0 36 36" fill="none" xmlns="http://www.w3.org/2000/svg">
<path d="M10.095 29.55C11.325 28.23 13.2 28.335 14.28 29.775L15.795 31.8C17.01 33.405 18.975 33.405 20.19 31.8L21.705 29.775C22.785 28.335 24.66 28.23 25.89 29.55C28.56 32.4 30.735 31.455 30.735 27.465V10.56C30.75 4.515 29.34 3 23.67 3H12.33C6.66 3 5.25 4.515 5.25 10.56V27.45C5.25 31.455 7.44 32.385 10.095 29.55Z" stroke="black" stroke-width="2" stroke-linecap="round" stroke-linejoin="round"/>
<path d="M12.1445 16.5H12.1561" stroke="black" stroke-width="2" stroke-linecap="round" stroke-linejoin="round"/>
<path d="M16.3477 16.5H24.5977" stroke="black" stroke-width="1.5" stroke-linecap="round" stroke-linejoin="round"/>
<path d="M12.1445 10.5H12.1561" stroke="black" stroke-width="2" stroke-linecap="round" stroke-linejoin="round"/>
<path d="M16.3477 10.5H24.5977" stroke="black" stroke-width="2" stroke-linecap="round" stroke-linejoin="round"/>
</svg>
